{
	"asset":{
		"generator":"Khronos glTF Blender I/O v3.6.27",
		"version":"2.0"
	},
	"scene":0,
	"scenes":[
		{
			"name":"Scene",
			"nodes":[
				0
			]
		}
	],
	"nodes":[
		{
			"mesh":0,
			"name":"PAJ-MAS-0003-00",
			"rotation":[
				0.5663595795631409,
				-0.43790721893310547,
				0.44246557354927063,
				0.5400910377502441
			],
			"scale":[
				0.10000000894069672,
				0.10000000149011612,
				0.10000000149011612
			],
			"translation":[
				62.59891891479492,
				-36.61376190185547,
				-61.52900695800781
			]
		}
	],
	"meshes":[
		{
			"name":"PAJ-MAS-0003-00",
			"primitives":[
				{
					"attributes":{
						"POSITION":0,
						"NORMAL":1
					},
					"indices":2
				}
			]
		}
	],
	"accessors":[
		{
			"bufferView":0,
			"componentType":5126,
			"count":2128545,
			"max":[
				713.7169189453125,
				1300.4019775390625,
				-396.45001220703125
			],
			"min":[
				146.15342712402344,
				303.238525390625,
				-1050.7073974609375
			],
			"type":"VEC3"
		},
		{
			"bufferView":1,
			"componentType":5126,
			"count":2128545,
			"type":"VEC3"
		},
		{
			"bufferView":2,
			"componentType":5125,
			"count":2305770,
			"type":"SCALAR"
		}
	],
	"bufferViews":[
		{
			"buffer":0,
			"byteLength":25542540,
			"byteOffset":0,
			"target":34962
		},
		{
			"buffer":0,
			"byteLength":25542540,
			"byteOffset":25542540,
			"target":34962
		},
		{
			"buffer":0,
			"byteLength":9223080,
			"byteOffset":51085080,
			"target":34963
		}
	],
	"buffers":[
		{
			"byteLength":60308160,
			"uri":"untitled.bin"
		}
	]
}
