<svg id="Layer_1" data-name="Layer 1" xmlns="http://www.w3.org/2000/svg" viewBox="0 0 509.61 94.09"><defs><style>.cls-1{fill:#05acea;}.cls-2{fill:#f9f9f9;}</style></defs><path class="cls-1" d="M772.32,549.15c0-9.67-.11-19.33,0-29a23.13,23.13,0,0,1,22.77-23c20.15-.19,40.31,0,60.47-.11,2.66,0,3.76.57,3.87,3.54.43,12.43.54,12.43-12,12.43-16.65,0-33.31,0-50,0-7.92,0-12.24,6.68-9.43,14.19,1,2.56,3,1.6,4.65,1.6,15.32.08,30.65.18,46,0,4.14-.06,5.8.65,5.6,5.36-.43,10.49-.13,10.52-10.44,10.53-12.66,0-25.32-.06-38,0-9.48.06-8-1-8.05,7.81-.1,9.33-.14,18.66,0,28,.05,3.23-1,4.28-4.29,4.32-11.21.12-11.21.26-11.22-10.67v-25Z" transform="translate(-673.89 -491.18)"/><path class="cls-1" d="M962.29,524.2c-.68,8.17.93,18-1.59,27.73-4.71,18.22-20.47,31.73-41,32.57-16.92.7-32.92-8-41.22-25.9a43.68,43.68,0,0,1-3.93-17.91c-.17-13.16,0-26.32-.14-39.48,0-3.27.92-4.2,4.19-4.21,11.82-.06,11.81-.19,11.82,11.43,0,11.15-.23,22.32.12,33.47.42,13.23,9.79,23.7,23,26.42,11.72,2.42,24-3.78,29.8-15a27.38,27.38,0,0,0,3-12.93c-.09-13,.11-26-.11-39,0-3.54,1-4.42,4.44-4.41,11.6.06,11.6-.09,11.6,11.64Z" transform="translate(-673.89 -491.18)"/><path class="cls-1" d="M718,498c6.55,12.76,13.2,25.63,19.8,38.54q11.09,21.69,22.09,43.43c2.39,4.71,2.24,4.15-2.84,5-9.46,1.49-14.58-2.06-18.33-10.91-5.34-12.64-12.2-24.64-18.43-36.9-.73-1.44-1.62-2.8-2.88-5-5.14,10-10,19.29-14.79,28.65-3.48,6.78-7,13.56-10.26,20.43-1.23,2.54-2.68,3.89-5.7,3.6a50.82,50.82,0,0,0-9,0c-4.12.34-4.51-1.19-2.81-4.48,7.44-14.42,14.79-28.87,22.18-43.31l19-37.14C716.4,499.22,716.48,498.28,718,498Z" transform="translate(-673.89 -491.18)"/><path class="cls-2" d="M997.52,529.67c11.05-11.69,23.12-14.23,36.52-9.38,13.94,5.05,21.82,20.29,19.31,36.15a31.74,31.74,0,0,1-29.16,26.92c-20.44,1.21-35.48-12.39-35.75-32.76-.23-17.65,0-35.32,0-53a12.32,12.32,0,0,1,0-1.49c.34-3,1.57-5.19,5-4.93,3.12.24,4.07,2.31,4,5.2,0,9,0,18,0,27ZM1021,575.15c13.61,0,24-10.67,23.9-24.58s-10.36-24.31-23.74-24.2-23.7,10.62-23.7,24.3S1007.77,575.11,1021,575.15Z" transform="translate(-673.89 -491.18)"/><path class="cls-2" d="M1100.67,583.48c-18.82,0-32.66-14-32.57-32.84s13.77-32.51,32.78-32.5c18.84,0,32.61,13.86,32.58,32.74S1119.64,583.48,1100.67,583.48Zm-23.46-32.72c0,14,9.87,24.33,23.43,24.39s23.59-10.1,23.63-24.15c0-14.49-9.86-24.82-23.63-24.64S1077.21,536.65,1077.21,550.76Z" transform="translate(-673.89 -491.18)"/><path class="cls-2" d="M1154.35,546.69c0-4.83-.15-9.66.06-14.48.12-2.69-.79-3.35-3.37-3.31-3.27,0-8,1.24-8-4s4.86-3.9,8.08-3.88c2.65,0,3.44-.76,3.32-3.4-.21-4.65-.1-9.32,0-14,0-3,1.22-5.29,4.6-5.37s4.63,2.19,4.73,5.19c.11,3.33.06,6.66.06,10,0,7.48,0,7.48,7.23,7.48,2,0,4,0,6,.07,2.33.08,3.84,1.34,4,3.64.18,2.6-1.42,4.09-3.9,4.23-3.48.19-7,.2-10.48.08-2.11-.07-2.91.57-2.88,2.8.15,10-.09,20,.26,30,.26,7.29,4.85,11.53,12,12.07a16.65,16.65,0,0,0,2,0c3.09-.16,5.38.92,5.47,4.31.1,3.64-2.48,4.71-5.6,4.95-12.63,1-23-8.81-23.5-22.39-.18-4.65,0-9.32,0-14Z" transform="translate(-673.89 -491.18)"/></svg>