{
	"asset":{
		"generator":"Khronos glTF Blender I/O v3.6.27",
		"version":"2.0"
	},
	"scene":0,
	"scenes":[
		{
			"name":"Scene",
			"nodes":[
				0
			]
		}
	],
	"nodes":[
		{
			"mesh":0,
			"name":"PAJ-MAS-0003-00",
			"rotation":[
				0.23535622656345367,
				-0.6481860280036926,
				0.6956547498703003,
				0.20131300389766693
			],
			"scale":[
				9.999999747378752e-06,
				9.999999747378752e-06,
				1.0000000656873453e-05
			],
			"translation":[
				0.003479165257886052,
				-0.005705113057047129,
				0.0026728177908807993
			]
		}
	],
	"meshes":[
		{
			"name":"PAJ-MAS-0003-00",
			"primitives":[
				{
					"attributes":{
						"POSITION":0,
						"NORMAL":1
					},
					"indices":2
				}
			]
		}
	],
	"accessors":[
		{
			"bufferView":0,
			"componentType":5126,
			"count":382172,
			"max":[
				713.7169189453125,
				1300.4019775390625,
				-396.45001220703125
			],
			"min":[
				146.15342712402344,
				303.238525390625,
				-1050.7073974609375
			],
			"type":"VEC3"
		},
		{
			"bufferView":1,
			"componentType":5126,
			"count":382172,
			"type":"VEC3"
		},
		{
			"bufferView":2,
			"componentType":5125,
			"count":2305770,
			"type":"SCALAR"
		}
	],
	"bufferViews":[
		{
			"buffer":0,
			"byteLength":4586064,
			"byteOffset":0,
			"target":34962
		},
		{
			"buffer":0,
			"byteLength":4586064,
			"byteOffset":4586064,
			"target":34962
		},
		{
			"buffer":0,
			"byteLength":9223080,
			"byteOffset":9172128,
			"target":34963
		}
	],
	"buffers":[
		{
			"byteLength":18395208,
			"uri":"untitled.bin"
		}
	]
}
